# xmcd
#
# Track frame offsets:
#	150
#	20857
#	37162
#	55069
#	69440
#	85866
#	103285
#	118603
#	134269
#	153442
#	171730
#
# Disc length: 2530 seconds
#
# Revision: 1
# Processed by: cddbd v1.5.2PL0 Copyright (c) Steve Scherf et al.
# Submitted via: audiograbber 1.83.01
#
DISCID=9f09e00b
DTITLE=Cheek - Kuka Muu Muka
DYEAR=2013
DGENRE=Hip-Hop
TTITLE0=Älä Pyydä Mitään
TTITLE1=Timantit On Ikuisia
TTITLE2=Vihaajat Vihaa (Feat. Kalle Kinos)
TTITLE3=Jossu (Feat. Jukka Poika)
TTITLE4=Kuka Muu Muka
TTITLE5=Ota Mut Kiinni
TTITLE6=Fiiliksissä (Feat. Diandra)
TTITLE7=Omat Säännöt
TTITLE8=Niille Joil On Paha Olla
TTITLE9=Parempi Mies (Feat. Samuli Edelmann)
TTITLE10=Profeetat (Feat. Elastinen)
EXTD=TR.
EXTT0=
EXTT1=
EXTT2=
EXTT3=
EXTT4=
EXTT5=
EXTT6=
EXTT7=
EXTT8=
EXTT9=
EXTT10=
PLAYORDER=
